<?xml version="1.0" encoding="UTF-8"?>
<svg width="900" height="180" viewBox="0 0 810 110" fill="none" xmlns="http://www.w3.org/2000/svg" role="img" aria-label="RunwayCtrl wordmark">
  <defs>
    <linearGradient id="split" gradientUnits="userSpaceOnUse" x1="0" y1="20" x2="0" y2="90">
      <stop offset="0%" stop-color="#4B5563"/>
      <stop offset="46%" stop-color="#4B5563"/>
      <stop offset="54%" stop-color="#111827"/>
      <stop offset="100%" stop-color="#111827"/>
    </linearGradient>
  </defs>
  <g fill="url(#split)">
    <rect x="20" y="20" width="8" height="8" rx="1"/>
    <rect x="30" y="20" width="8" height="8" rx="1"/>
    <rect x="40" y="20" width="8" height="8" rx="1"/>
    <rect x="50" y="20" width="8" height="8" rx="1"/>
    <rect x="20" y="30" width="8" height="8" rx="1"/>
    <rect x="60" y="30" width="8" height="8" rx="1"/>
    <rect x="20" y="40" width="8" height="8" rx="1"/>
    <rect x="60" y="40" width="8" height="8" rx="1"/>
    <rect x="20" y="50" width="8" height="8" rx="1"/>
    <rect x="30" y="50" width="8" height="8" rx="1"/>
    <rect x="40" y="50" width="8" height="8" rx="1"/>
    <rect x="50" y="50" width="8" height="8" rx="1"/>
    <rect x="20" y="60" width="8" height="8" rx="1"/>
    <rect x="40" y="60" width="8" height="8" rx="1"/>
    <rect x="20" y="70" width="8" height="8" rx="1"/>
    <rect x="50" y="70" width="8" height="8" rx="1"/>
    <rect x="20" y="80" width="8" height="8" rx="1"/>
    <rect x="60" y="80" width="8" height="8" rx="1"/>
    <rect x="100" y="20" width="8" height="8" rx="1"/>
    <rect x="140" y="20" width="8" height="8" rx="1"/>
    <rect x="100" y="30" width="8" height="8" rx="1"/>
    <rect x="140" y="30" width="8" height="8" rx="1"/>
    <rect x="100" y="40" width="8" height="8" rx="1"/>
    <rect x="140" y="40" width="8" height="8" rx="1"/>
    <rect x="100" y="50" width="8" height="8" rx="1"/>
    <rect x="140" y="50" width="8" height="8" rx="1"/>
    <rect x="100" y="60" width="8" height="8" rx="1"/>
    <rect x="140" y="60" width="8" height="8" rx="1"/>
    <rect x="100" y="70" width="8" height="8" rx="1"/>
    <rect x="140" y="70" width="8" height="8" rx="1"/>
    <rect x="110" y="80" width="8" height="8" rx="1"/>
    <rect x="120" y="80" width="8" height="8" rx="1"/>
    <rect x="130" y="80" width="8" height="8" rx="1"/>
    <rect x="180" y="20" width="8" height="8" rx="1"/>
    <rect x="220" y="20" width="8" height="8" rx="1"/>
    <rect x="180" y="30" width="8" height="8" rx="1"/>
    <rect x="190" y="30" width="8" height="8" rx="1"/>
    <rect x="220" y="30" width="8" height="8" rx="1"/>
    <rect x="180" y="40" width="8" height="8" rx="1"/>
    <rect x="200" y="40" width="8" height="8" rx="1"/>
    <rect x="220" y="40" width="8" height="8" rx="1"/>
    <rect x="180" y="50" width="8" height="8" rx="1"/>
    <rect x="210" y="50" width="8" height="8" rx="1"/>
    <rect x="220" y="50" width="8" height="8" rx="1"/>
    <rect x="180" y="60" width="8" height="8" rx="1"/>
    <rect x="220" y="60" width="8" height="8" rx="1"/>
    <rect x="180" y="70" width="8" height="8" rx="1"/>
    <rect x="220" y="70" width="8" height="8" rx="1"/>
    <rect x="180" y="80" width="8" height="8" rx="1"/>
    <rect x="220" y="80" width="8" height="8" rx="1"/>
    <rect x="260" y="20" width="8" height="8" rx="1"/>
    <rect x="300" y="20" width="8" height="8" rx="1"/>
    <rect x="260" y="30" width="8" height="8" rx="1"/>
    <rect x="300" y="30" width="8" height="8" rx="1"/>
    <rect x="260" y="40" width="8" height="8" rx="1"/>
    <rect x="300" y="40" width="8" height="8" rx="1"/>
    <rect x="260" y="50" width="8" height="8" rx="1"/>
    <rect x="280" y="50" width="8" height="8" rx="1"/>
    <rect x="300" y="50" width="8" height="8" rx="1"/>
    <rect x="260" y="60" width="8" height="8" rx="1"/>
    <rect x="280" y="60" width="8" height="8" rx="1"/>
    <rect x="300" y="60" width="8" height="8" rx="1"/>
    <rect x="260" y="70" width="8" height="8" rx="1"/>
    <rect x="270" y="70" width="8" height="8" rx="1"/>
    <rect x="290" y="70" width="8" height="8" rx="1"/>
    <rect x="300" y="70" width="8" height="8" rx="1"/>
    <rect x="260" y="80" width="8" height="8" rx="1"/>
    <rect x="300" y="80" width="8" height="8" rx="1"/>
    <rect x="350" y="20" width="8" height="8" rx="1"/>
    <rect x="360" y="20" width="8" height="8" rx="1"/>
    <rect x="370" y="20" width="8" height="8" rx="1"/>
    <rect x="340" y="30" width="8" height="8" rx="1"/>
    <rect x="380" y="30" width="8" height="8" rx="1"/>
    <rect x="340" y="40" width="8" height="8" rx="1"/>
    <rect x="380" y="40" width="8" height="8" rx="1"/>
    <rect x="340" y="50" width="8" height="8" rx="1"/>
    <rect x="350" y="50" width="8" height="8" rx="1"/>
    <rect x="360" y="50" width="8" height="8" rx="1"/>
    <rect x="370" y="50" width="8" height="8" rx="1"/>
    <rect x="380" y="50" width="8" height="8" rx="1"/>
    <rect x="340" y="60" width="8" height="8" rx="1"/>
    <rect x="380" y="60" width="8" height="8" rx="1"/>
    <rect x="340" y="70" width="8" height="8" rx="1"/>
    <rect x="380" y="70" width="8" height="8" rx="1"/>
    <rect x="340" y="80" width="8" height="8" rx="1"/>
    <rect x="380" y="80" width="8" height="8" rx="1"/>
    <rect x="420" y="20" width="8" height="8" rx="1"/>
    <rect x="460" y="20" width="8" height="8" rx="1"/>
    <rect x="420" y="30" width="8" height="8" rx="1"/>
    <rect x="460" y="30" width="8" height="8" rx="1"/>
    <rect x="430" y="40" width="8" height="8" rx="1"/>
    <rect x="450" y="40" width="8" height="8" rx="1"/>
    <rect x="440" y="50" width="8" height="8" rx="1"/>
    <rect x="440" y="60" width="8" height="8" rx="1"/>
    <rect x="440" y="70" width="8" height="8" rx="1"/>
    <rect x="440" y="80" width="8" height="8" rx="1"/>
    <rect x="510" y="20" width="8" height="8" rx="1"/>
    <rect x="520" y="20" width="8" height="8" rx="1"/>
    <rect x="530" y="20" width="8" height="8" rx="1"/>
    <rect x="500" y="30" width="8" height="8" rx="1"/>
    <rect x="540" y="30" width="8" height="8" rx="1"/>
    <rect x="500" y="40" width="8" height="8" rx="1"/>
    <rect x="500" y="50" width="8" height="8" rx="1"/>
    <rect x="500" y="60" width="8" height="8" rx="1"/>
    <rect x="500" y="70" width="8" height="8" rx="1"/>
    <rect x="540" y="70" width="8" height="8" rx="1"/>
    <rect x="510" y="80" width="8" height="8" rx="1"/>
    <rect x="520" y="80" width="8" height="8" rx="1"/>
    <rect x="530" y="80" width="8" height="8" rx="1"/>
    <rect x="580" y="20" width="8" height="8" rx="1"/>
    <rect x="590" y="20" width="8" height="8" rx="1"/>
    <rect x="600" y="20" width="8" height="8" rx="1"/>
    <rect x="610" y="20" width="8" height="8" rx="1"/>
    <rect x="620" y="20" width="8" height="8" rx="1"/>
    <rect x="600" y="30" width="8" height="8" rx="1"/>
    <rect x="600" y="40" width="8" height="8" rx="1"/>
    <rect x="600" y="50" width="8" height="8" rx="1"/>
    <rect x="600" y="60" width="8" height="8" rx="1"/>
    <rect x="600" y="70" width="8" height="8" rx="1"/>
    <rect x="600" y="80" width="8" height="8" rx="1"/>
    <rect x="660" y="20" width="8" height="8" rx="1"/>
    <rect x="670" y="20" width="8" height="8" rx="1"/>
    <rect x="680" y="20" width="8" height="8" rx="1"/>
    <rect x="690" y="20" width="8" height="8" rx="1"/>
    <rect x="660" y="30" width="8" height="8" rx="1"/>
    <rect x="700" y="30" width="8" height="8" rx="1"/>
    <rect x="660" y="40" width="8" height="8" rx="1"/>
    <rect x="700" y="40" width="8" height="8" rx="1"/>
    <rect x="660" y="50" width="8" height="8" rx="1"/>
    <rect x="670" y="50" width="8" height="8" rx="1"/>
    <rect x="680" y="50" width="8" height="8" rx="1"/>
    <rect x="690" y="50" width="8" height="8" rx="1"/>
    <rect x="660" y="60" width="8" height="8" rx="1"/>
    <rect x="680" y="60" width="8" height="8" rx="1"/>
    <rect x="660" y="70" width="8" height="8" rx="1"/>
    <rect x="690" y="70" width="8" height="8" rx="1"/>
    <rect x="660" y="80" width="8" height="8" rx="1"/>
    <rect x="700" y="80" width="8" height="8" rx="1"/>
    <rect x="740" y="20" width="8" height="8" rx="1"/>
    <rect x="740" y="30" width="8" height="8" rx="1"/>
    <rect x="740" y="40" width="8" height="8" rx="1"/>
    <rect x="740" y="50" width="8" height="8" rx="1"/>
    <rect x="740" y="60" width="8" height="8" rx="1"/>
    <rect x="740" y="70" width="8" height="8" rx="1"/>
    <rect x="740" y="80" width="8" height="8" rx="1"/>
    <rect x="750" y="80" width="8" height="8" rx="1"/>
    <rect x="760" y="80" width="8" height="8" rx="1"/>
    <rect x="770" y="80" width="8" height="8" rx="1"/>
    <rect x="780" y="80" width="8" height="8" rx="1"/>
  </g>
</svg>