<?xml version="1.0" encoding="UTF-8"?>
<svg width="900" height="180" viewBox="0 0 1587 183" fill="none" xmlns="http://www.w3.org/2000/svg" role="img" aria-label="RunwayCtrl">
  <defs>
    <linearGradient id="s" gradientUnits="userSpaceOnUse" x1="0" y1="24" x2="0" y2="159">
      <stop offset="0%" stop-color="#D1D5DB"/>
      <stop offset="42%" stop-color="#D1D5DB"/>
      <stop offset="58%" stop-color="#6B7280"/>
      <stop offset="100%" stop-color="#6B7280"/>
    </linearGradient>
  </defs>
  <g fill="url(#s)">
    <rect x="51" y="24" width="24" height="24"/>
    <rect x="78" y="24" width="24" height="24"/>
    <rect x="105" y="24" width="24" height="24"/>
    <rect x="24" y="51" width="24" height="24"/>
    <rect x="51" y="51" width="24" height="24"/>
    <rect x="24" y="78" width="24" height="24"/>
    <rect x="24" y="105" width="24" height="24"/>
    <rect x="24" y="132" width="24" height="24"/>
    <rect x="186" y="24" width="24" height="24"/>
    <rect x="267" y="24" width="24" height="24"/>
    <rect x="186" y="51" width="24" height="24"/>
    <rect x="267" y="51" width="24" height="24"/>
    <rect x="186" y="78" width="24" height="24"/>
    <rect x="267" y="78" width="24" height="24"/>
    <rect x="186" y="105" width="24" height="24"/>
    <rect x="267" y="105" width="24" height="24"/>
    <rect x="213" y="132" width="24" height="24"/>
    <rect x="240" y="132" width="24" height="24"/>
    <rect x="348" y="24" width="24" height="24"/>
    <rect x="375" y="24" width="24" height="24"/>
    <rect x="402" y="24" width="24" height="24"/>
    <rect x="348" y="51" width="24" height="24"/>
    <rect x="429" y="51" width="24" height="24"/>
    <rect x="348" y="78" width="24" height="24"/>
    <rect x="429" y="78" width="24" height="24"/>
    <rect x="348" y="105" width="24" height="24"/>
    <rect x="429" y="105" width="24" height="24"/>
    <rect x="348" y="132" width="24" height="24"/>
    <rect x="429" y="132" width="24" height="24"/>
    <rect x="510" y="24" width="24" height="24"/>
    <rect x="618" y="24" width="24" height="24"/>
    <rect x="510" y="51" width="24" height="24"/>
    <rect x="618" y="51" width="24" height="24"/>
    <rect x="510" y="78" width="24" height="24"/>
    <rect x="564" y="78" width="24" height="24"/>
    <rect x="618" y="78" width="24" height="24"/>
    <rect x="510" y="105" width="24" height="24"/>
    <rect x="537" y="105" width="24" height="24"/>
    <rect x="591" y="105" width="24" height="24"/>
    <rect x="618" y="105" width="24" height="24"/>
    <rect x="537" y="132" width="24" height="24"/>
    <rect x="591" y="132" width="24" height="24"/>
    <rect x="726" y="24" width="24" height="24"/>
    <rect x="753" y="24" width="24" height="24"/>
    <rect x="699" y="51" width="24" height="24"/>
    <rect x="780" y="51" width="24" height="24"/>
    <rect x="699" y="78" width="24" height="24"/>
    <rect x="726" y="78" width="24" height="24"/>
    <rect x="753" y="78" width="24" height="24"/>
    <rect x="780" y="78" width="24" height="24"/>
    <rect x="699" y="105" width="24" height="24"/>
    <rect x="780" y="105" width="24" height="24"/>
    <rect x="699" y="132" width="24" height="24"/>
    <rect x="780" y="132" width="24" height="24"/>
    <rect x="861" y="24" width="24" height="24"/>
    <rect x="942" y="24" width="24" height="24"/>
    <rect x="861" y="51" width="24" height="24"/>
    <rect x="942" y="51" width="24" height="24"/>
    <rect x="888" y="78" width="24" height="24"/>
    <rect x="915" y="78" width="24" height="24"/>
    <rect x="915" y="105" width="24" height="24"/>
    <rect x="888" y="132" width="24" height="24"/>
    <rect x="1050" y="24" width="24" height="24"/>
    <rect x="1077" y="24" width="24" height="24"/>
    <rect x="1104" y="24" width="24" height="24"/>
    <rect x="1023" y="51" width="24" height="24"/>
    <rect x="1023" y="78" width="24" height="24"/>
    <rect x="1023" y="105" width="24" height="24"/>
    <rect x="1050" y="132" width="24" height="24"/>
    <rect x="1077" y="132" width="24" height="24"/>
    <rect x="1104" y="132" width="24" height="24"/>
    <rect x="1212" y="24" width="24" height="24"/>
    <rect x="1185" y="51" width="24" height="24"/>
    <rect x="1212" y="51" width="24" height="24"/>
    <rect x="1239" y="51" width="24" height="24"/>
    <rect x="1212" y="78" width="24" height="24"/>
    <rect x="1212" y="105" width="24" height="24"/>
    <rect x="1239" y="132" width="24" height="24"/>
    <rect x="1347" y="24" width="24" height="24"/>
    <rect x="1374" y="24" width="24" height="24"/>
    <rect x="1401" y="24" width="24" height="24"/>
    <rect x="1320" y="51" width="24" height="24"/>
    <rect x="1347" y="51" width="24" height="24"/>
    <rect x="1320" y="78" width="24" height="24"/>
    <rect x="1320" y="105" width="24" height="24"/>
    <rect x="1320" y="132" width="24" height="24"/>
    <rect x="1482" y="24" width="24" height="24"/>
    <rect x="1509" y="24" width="24" height="24"/>
    <rect x="1509" y="51" width="24" height="24"/>
    <rect x="1509" y="78" width="24" height="24"/>
    <rect x="1509" y="105" width="24" height="24"/>
    <rect x="1509" y="132" width="24" height="24"/>
    <rect x="1536" y="132" width="24" height="24"/>
  </g>
</svg>